<?xml version="1.0" standalone="no"?><!DOCTYPE svg PUBLIC "-//W3C//DTD SVG 1.1//EN" "http://www.w3.org/Graphics/SVG/1.1/DTD/svg11.dtd"><svg t="1772265102644" class="icon" viewBox="0 0 1024 1024" version="1.1" xmlns="http://www.w3.org/2000/svg" p-id="4810" xmlns:xlink="http://www.w3.org/1999/xlink" width="200" height="200"><path d="M512.687 518.779l-266.07 310.35c-11.838 12.67-19.197 34.875-12.606 50.745a43.385 43.385 0 0 0 40.506 26.875c10.046 0 18.3-3.583 29.115-14.397L632.86 551.094a56.12 56.12 0 0 0 0.384-79.092L512.75 518.78z" fill="#AA142D" p-id="4811"></path><path d="M507.184 512.316l246.169-311.439c13.758-18.365 20.22-27.9 13.758-43.513a47.417 47.417 0 0 0-41.274-29.115 37.114 37.114 0 0 0-27.707 10.238L383.3 471.938c-23.997 23.996-23.933 55.031 0.127 79.092l440.25 461.623a35.962 35.962 0 0 0 28.924 11.006c17.79 0 29.372-10.494 37.114-25.98 6.591-15.87-0.768-31.675-12.926-48.12L507.184 512.316" fill="#BDB9B4" p-id="4812"></path><path d="M633.18 472.002L203.296 19.594S187.49 0.397 170.789 0.013a42.425 42.425 0 0 0-39.93 25.66c-6.463 15.613-1.855 26.556 12.414 46.968l369.35 446.138 120.557-46.777z" fill="#AA142D" p-id="4813"></path></svg>