<?xml version="1.0" standalone="no"?><!DOCTYPE svg PUBLIC "-//W3C//DTD SVG 1.1//EN" "http://www.w3.org/Graphics/SVG/1.1/DTD/svg11.dtd"><svg height="32" node-id="1" sillyvg="true" template-height="32" template-width="32" version="1.1" viewBox="0 0 32 32" width="32" xmlns="http://www.w3.org/2000/svg" xmlns:xlink="http://www.w3.org/1999/xlink"><defs node-id="147"><linearGradient gradientUnits="objectBoundingBox" id="paint0_linear_7137_6158" node-id="76" spreadMethod="pad" x1="6.81209" x2="4.09448" y1="23.903" y2="3.71276"><stop offset="0" stop-color="#ec008c"></stop><stop offset="1" stop-color="#e81123"></stop></linearGradient><linearGradient gradientUnits="objectBoundingBox" id="paint1_linear_7137_6158" node-id="79" spreadMethod="pad" x1="3.81586" x2="0.0238809" y1="14.3594" y2="12.3593"><stop offset="0.151052" stop-color="#a11749" stop-opacity="0"></stop><stop offset="0.894692" stop-color="#a21749"></stop></linearGradient><linearGradient gradientUnits="objectBoundingBox" id="paint2_linear_7137_6158" node-id="82" spreadMethod="pad" x1="5.94086" x2="4.94086" y1="11.7969" y2="18.8281"><stop offset="0" stop-color="#db1136"></stop><stop offset="1" stop-color="#db1136" stop-opacity="0"></stop></linearGradient><linearGradient gradientUnits="objectBoundingBox" id="paint3_linear_7137_6158" node-id="85" spreadMethod="pad" x1="4.87836" x2="3.30023" y1="16.8906" y2="16.6719"><stop offset="0.151052" stop-color="#a11749" stop-opacity="0"></stop><stop offset="0.894692" stop-color="#a21749"></stop></linearGradient><linearGradient gradientUnits="objectBoundingBox" id="paint4_linear_7137_6158" node-id="88" spreadMethod="pad" x1="14.4953" x2="13.9836" y1="23.2281" y2="6.48432"><stop offset="0" stop-color="#ec008c"></stop><stop offset="1" stop-color="#e81123"></stop></linearGradient><linearGradient gradientUnits="objectBoundingBox" id="paint6_linear_7137_6158" node-id="94" spreadMethod="pad" x1="11.1519" x2="7.66615" y1="11.8226" y2="8.1017"><stop offset="0.151052" stop-color="#a11749" stop-opacity="0"></stop><stop offset="0.894692" stop-color="#a21749"></stop></linearGradient><linearGradient gradientUnits="objectBoundingBox" id="paint7_linear_7137_6158" node-id="97" spreadMethod="pad" x1="15.5659" x2="18.9409" y1="16.7968" y2="20.0468"><stop offset="0.151052" stop-color="#a11749" stop-opacity="0"></stop><stop offset="0.894692" stop-color="#a21749"></stop></linearGradient><linearGradient gradientUnits="objectBoundingBox" id="paint8_linear_7137_6158" node-id="100" spreadMethod="pad" x1="25.2958" x2="24.7841" y1="20.9156" y2="4.17182"><stop offset="0" stop-color="#ec008c"></stop><stop offset="1" stop-color="#e81123"></stop></linearGradient><linearGradient gradientUnits="objectBoundingBox" id="paint10_linear_7137_6158" node-id="106" spreadMethod="pad" x1="21.9524" x2="18.4666" y1="9.51011" y2="5.7892"><stop offset="0.151052" stop-color="#a11749" stop-opacity="0"></stop><stop offset="0.894692" stop-color="#a21749"></stop></linearGradient><linearGradient gradientUnits="objectBoundingBox" id="paint11_linear_7137_6158" node-id="109" spreadMethod="pad" x1="26.3663" x2="29.7413" y1="14.4843" y2="17.7343"><stop offset="0.151052" stop-color="#a11749" stop-opacity="0"></stop><stop offset="0.894692" stop-color="#a21749"></stop></linearGradient><linearGradient gradientUnits="objectBoundingBox" id="paint12_linear_7137_6158" node-id="112" spreadMethod="pad" x1="28.3663" x2="28.4913" y1="2.42181" y2="16.1406"><stop offset="0" stop-color="#ff6579" stop-opacity="0"></stop><stop offset="0.36721" stop-color="#ff6579"></stop><stop offset="1" stop-color="#ff596f" stop-opacity="0"></stop></linearGradient><linearGradient gradientUnits="objectBoundingBox" id="paint13_linear_7137_6158" node-id="116" spreadMethod="pad" x1="22.0159" x2="21.8909" y1="18.5284" y2="4.80961"><stop offset="0" stop-color="#ff6579" stop-opacity="0"></stop><stop offset="0.36721" stop-color="#ff6579"></stop><stop offset="1" stop-color="#ff596f" stop-opacity="0"></stop></linearGradient><linearGradient gradientUnits="objectBoundingBox" id="paint14_linear_7137_6158" node-id="120" spreadMethod="pad" x1="18.3159" x2="17.6284" y1="22.7968" y2="19.1718"><stop offset="0" stop-color="#ec008c"></stop><stop offset="0.828125" stop-color="#e81123"></stop></linearGradient><linearGradient gradientUnits="objectBoundingBox" id="paint15_linear_7137_6158" node-id="123" spreadMethod="pad" x1="17.7534" x2="16.5175" y1="26.2968" y2="21.5054"><stop offset="0" stop-color="#ec008c"></stop><stop offset="0.668308" stop-color="#e81123"></stop></linearGradient><linearGradient gradientUnits="objectBoundingBox" id="paint16_linear_7137_6158" node-id="126" spreadMethod="pad" x1="7.78461" x2="5.37836" y1="12.1719" y2="28.1094"><stop offset="0" stop-color="#ff6579"></stop><stop offset="1" stop-color="#ff596f" stop-opacity="0"></stop></linearGradient><linearGradient gradientUnits="objectBoundingBox" id="paint17_linear_7137_6158" node-id="129" spreadMethod="pad" x1="6.19022" x2="6.10479" y1="11.2251" y2="14.6401"><stop offset="0" stop-color="#ff47b4" stop-opacity="0"></stop><stop offset="1" stop-color="#ff47b4"></stop></linearGradient><linearGradient gradientUnits="objectBoundingBox" id="paint18_linear_7137_6158" node-id="132" spreadMethod="pad" x1="17.5659" x2="17.6909" y1="4.73431" y2="18.4531"><stop offset="0" stop-color="#ff6579" stop-opacity="0"></stop><stop offset="0.36721" stop-color="#ff6579"></stop><stop offset="1" stop-color="#ff596f" stop-opacity="0"></stop></linearGradient><linearGradient gradientUnits="objectBoundingBox" id="paint19_linear_7137_6158" node-id="136" spreadMethod="pad" x1="11.2154" x2="11.0904" y1="20.8409" y2="7.12211"><stop offset="0" stop-color="#ff6579" stop-opacity="0"></stop><stop offset="0.36721" stop-color="#ff6579"></stop><stop offset="1" stop-color="#ff596f" stop-opacity="0"></stop></linearGradient><linearGradient gradientUnits="objectBoundingBox" id="paint20_linear_7137_6158" node-id="140" spreadMethod="pad" x1="27.6072" x2="25.6886" y1="19.9022" y2="19.9607"><stop offset="0" stop-color="#ff5e84"></stop><stop offset="1" stop-color="#ff698d" stop-opacity="0"></stop></linearGradient><linearGradient gradientUnits="objectBoundingBox" id="paint21_linear_7137_6158" node-id="143" spreadMethod="pad" x1="25.3884" x2="23.4699" y1="24.1834" y2="24.242"><stop offset="0" stop-color="#ff5e84"></stop><stop offset="1" stop-color="#ff698d" stop-opacity="0"></stop></linearGradient><radialGradient cx="0" cy="0" fx="0" fy="0" gradientUnits="objectBoundingBox" id="paint5_radial_7137_6158" node-id="91" r="1" rev="2" spreadMethod="pad"><stop offset="0.416667" stop-color="#b50a47"></stop><stop offset="1" stop-color="#ce0d52" stop-opacity="0"></stop></radialGradient><radialGradient cx="0" cy="0" fx="0" fy="0" gradientUnits="objectBoundingBox" id="paint9_radial_7137_6158" node-id="103" r="1" rev="1" spreadMethod="pad"><stop offset="0.416667" stop-color="#b50a47"></stop><stop offset="1" stop-color="#ce0d52" stop-opacity="0"></stop></radialGradient><filter filterUnits="objectBoundingBox" height="10.7344" id="filter0_f_7137_6158" node-id="36" width="3.57812" x="3.40961" y="11.5625"><feFlood color-interpolation-filters="sRGB" flood-color="#000000" flood-opacity="0" result="BackgroundImageFix"></feFlood><feBlend color-interpolation-filters="sRGB" in="SourceGraphic" in2="BackgroundImageFix" mode="normal" result="shape"></feBlend><feGaussianBlur color-interpolation-filters="sRGB" in="shape" result="effect1_foregroundBlur_7137_6158" stdDeviation="0.125 0.125"></feGaussianBlur></filter><filter filterUnits="objectBoundingBox" height="11.212599" id="filter1_f_7137_6158" node-id="40" width="5.805729" x="23.8974" y="3.70923"><feFlood color-interpolation-filters="sRGB" flood-color="#000000" flood-opacity="0" result="BackgroundImageFix"></feFlood><feBlend color-interpolation-filters="sRGB" in="SourceGraphic" in2="BackgroundImageFix" mode="normal" result="shape"></feBlend><feGaussianBlur color-interpolation-filters="sRGB" in="shape" result="effect1_foregroundBlur_7137_6158" stdDeviation="0.5 0.5"></feGaussianBlur></filter><filter filterUnits="objectBoundingBox" height="9.34961" id="filter2_f_7137_6158" node-id="44" width="5.9373207" x="20.679" y="7.73413"><feFlood color-interpolation-filters="sRGB" flood-color="#000000" flood-opacity="0" result="BackgroundImageFix"></feFlood><feBlend color-interpolation-filters="sRGB" in="SourceGraphic" in2="BackgroundImageFix" mode="normal" result="shape"></feBlend><feGaussianBlur color-interpolation-filters="sRGB" in="shape" result="effect1_foregroundBlur_7137_6158" stdDeviation="0.5 0.5"></feGaussianBlur></filter><filter filterUnits="objectBoundingBox" height="3.5625" id="filter3_f_7137_6158" node-id="48" width="3.5625" x="5.55023" y="7.5625"><feFlood color-interpolation-filters="sRGB" flood-color="#000000" flood-opacity="0" result="BackgroundImageFix"></feFlood><feBlend color-interpolation-filters="sRGB" in="SourceGraphic" in2="BackgroundImageFix" mode="normal" result="shape"></feBlend><feGaussianBlur color-interpolation-filters="sRGB" in="shape" result="effect1_foregroundBlur_7137_6158" stdDeviation="0.5 0.5"></feGaussianBlur></filter><filter filterUnits="objectBoundingBox" height="13.781199" id="filter4_f_7137_6158" node-id="52" width="4.2813406" x="4.40956" y="9.10938"><feFlood color-interpolation-filters="sRGB" flood-color="#000000" flood-opacity="0" result="BackgroundImageFix"></feFlood><feBlend color-interpolation-filters="sRGB" in="SourceGraphic" in2="BackgroundImageFix" mode="normal" result="shape"></feBlend><feGaussianBlur color-interpolation-filters="sRGB" in="shape" result="effect1_foregroundBlur_7137_6158" stdDeviation="0.5 0.5"></feGaussianBlur></filter><filter filterUnits="objectBoundingBox" height="5.0625" id="filter5_f_7137_6158" node-id="56" width="4.68752" x="2.2846" y="9.49634"><feFlood color-interpolation-filters="sRGB" flood-color="#000000" flood-opacity="0" result="BackgroundImageFix"></feFlood><feBlend color-interpolation-filters="sRGB" in="SourceGraphic" in2="BackgroundImageFix" mode="normal" result="shape"></feBlend><feGaussianBlur color-interpolation-filters="sRGB" in="shape" result="effect1_foregroundBlur_7137_6158" stdDeviation="0.5 0.5"></feGaussianBlur></filter><filter filterUnits="objectBoundingBox" height="11.212599" id="filter6_f_7137_6158" node-id="60" width="5.8057194" x="13.097" y="6.02173"><feFlood color-interpolation-filters="sRGB" flood-color="#000000" flood-opacity="0" result="BackgroundImageFix"></feFlood><feBlend color-interpolation-filters="sRGB" in="SourceGraphic" in2="BackgroundImageFix" mode="normal" result="shape"></feBlend><feGaussianBlur color-interpolation-filters="sRGB" in="shape" result="effect1_foregroundBlur_7137_6158" stdDeviation="0.5 0.5"></feGaussianBlur></filter><filter filterUnits="objectBoundingBox" height="9.349609" id="filter7_f_7137_6158" node-id="64" width="5.9373198" x="9.87856" y="10.0466"><feFlood color-interpolation-filters="sRGB" flood-color="#000000" flood-opacity="0" result="BackgroundImageFix"></feFlood><feBlend color-interpolation-filters="sRGB" in="SourceGraphic" in2="BackgroundImageFix" mode="normal" result="shape"></feBlend><feGaussianBlur color-interpolation-filters="sRGB" in="shape" result="effect1_foregroundBlur_7137_6158" stdDeviation="0.5 0.5"></feGaussianBlur></filter><filter filterUnits="objectBoundingBox" height="1.55093" id="filter8_f_7137_6158" node-id="68" width="1.9871502" x="25.7598" y="18.9354"><feFlood color-interpolation-filters="sRGB" flood-color="#000000" flood-opacity="0" result="BackgroundImageFix"></feFlood><feBlend color-interpolation-filters="sRGB" in="SourceGraphic" in2="BackgroundImageFix" mode="normal" result="shape"></feBlend><feGaussianBlur color-interpolation-filters="sRGB" in="shape" result="effect1_foregroundBlur_7137_6158" stdDeviation="0.15 0.15"></feGaussianBlur></filter><filter filterUnits="objectBoundingBox" height="1.55093" id="filter9_f_7137_6158" node-id="72" width="1.9871502" x="23.541" y="23.2166"><feFlood color-interpolation-filters="sRGB" flood-color="#000000" flood-opacity="0" result="BackgroundImageFix"></feFlood><feBlend color-interpolation-filters="sRGB" in="SourceGraphic" in2="BackgroundImageFix" mode="normal" result="shape"></feBlend><feGaussianBlur color-interpolation-filters="sRGB" in="shape" result="effect1_foregroundBlur_7137_6158" stdDeviation="0.15 0.15"></feGaussianBlur></filter></defs><path d="M 4.90 23.80 L 5.70 23.50 L 6.70 22.20 L 7.70 15.60 L 8.50 10.00 L 8.30 8.80 L 7.10 7.80 L 6.50 7.80 L 5.30 8.50 L 2.50 11.70 L 2.00 12.90 L 2.50 14.20 L 3.50 14.40 L 4.40 14.00 L 3.30 22.40 L 3.50 23.30 L 4.00 23.70 L 4.90 23.80 Z" fill="url(#paint0_linear_7137_6158)" fill-rule="nonzero" node-id="370" stroke="none" target-height="15.999999" target-width="6.5" target-x="2" target-y="7.8"></path><path d="M 4.90 23.80 L 5.70 23.50 L 6.70 22.20 L 7.70 15.60 L 8.50 10.00 L 8.30 8.80 L 7.10 7.80 L 6.50 7.80 L 5.30 8.50 L 2.50 11.70 L 2.00 12.90 L 2.50 14.20 L 3.50 14.40 L 4.40 14.00 L 3.30 22.40 L 3.50 23.30 L 4.00 23.70 L 4.90 23.80 Z" fill="url(#paint1_linear_7137_6158)" fill-rule="nonzero" node-id="372" stroke="none" target-height="15.999999" target-width="6.5" target-x="2" target-y="7.8"></path><g node-id="450"><path d="M 6.70 11.80 L 4.70 13.80 L 3.70 21.90 L 5.50 22.00 L 6.70 11.80 Z" fill="url(#paint2_linear_7137_6158)" fill-rule="nonzero" filter="url(#filter0_f_7137_6158)" group-id="1" node-id="376" stroke="none" target-height="10.2" target-width="2.9999998" target-x="3.7" target-y="11.8"></path></g><path d="M 5.40 23.70 L 4.00 23.70 L 3.50 23.30 L 3.30 22.40 L 4.40 14.00 L 7.00 12.20 L 5.40 23.70 Z" fill="url(#paint3_linear_7137_6158)" fill-rule="nonzero" node-id="379" stroke="none" target-height="11.500001" target-width="3.7" target-x="3.3" target-y="12.2"></path><path d="M 9.00 15.40 L 9.00 17.30 L 9.80 19.20 L 10.40 19.80 L 11.90 20.30 L 14.10 20.00 L 16.40 18.40 L 17.70 16.70 L 18.40 14.60 L 18.90 11.50 L 19.00 9.70 L 18.30 7.30 L 17.80 6.80 L 16.30 6.10 L 14.40 6.20 L 12.30 7.30 L 10.10 10.00 L 9.50 12.30 L 9.00 15.40 Z M 12.70 15.30 L 13.40 10.70 L 14.50 9.90 L 15.30 10.40 L 14.50 15.90 L 14.10 16.30 L 13.00 16.40 L 12.70 15.30 Z" fill="url(#paint4_linear_7137_6158)" fill-rule="nonzero" node-id="381" stroke="none" target-height="14.199999" target-width="10" target-x="9" target-y="6.1"></path><path d="M 9.00 15.40 L 9.00 17.30 L 9.80 19.20 L 10.40 19.80 L 11.90 20.30 L 14.10 20.00 L 16.40 18.40 L 17.70 16.70 L 18.40 14.60 L 18.90 11.50 L 19.00 9.70 L 18.30 7.30 L 17.80 6.80 L 16.30 6.10 L 14.40 6.20 L 12.30 7.30 L 10.10 10.00 L 9.50 12.30 L 9.00 15.40 Z M 12.70 15.30 L 13.40 10.70 L 14.50 9.90 L 15.30 10.40 L 14.50 15.90 L 14.10 16.30 L 13.00 16.40 L 12.70 15.30 Z" fill="url(#paint5_radial_7137_6158)" fill-rule="nonzero" node-id="383" stroke="none" target-height="14.199999" target-width="10" target-x="9" target-y="6.1"></path><path d="M 9.00 15.40 L 9.00 17.30 L 9.80 19.20 L 10.40 19.80 L 11.90 20.30 L 14.10 20.00 L 16.40 18.40 L 17.70 16.70 L 18.40 14.60 L 18.90 11.50 L 19.00 9.70 L 18.30 7.30 L 17.80 6.80 L 16.30 6.10 L 14.40 6.20 L 12.30 7.30 L 10.10 10.00 L 9.50 12.30 L 9.00 15.40 Z M 12.70 15.30 L 13.40 10.70 L 14.50 9.90 L 15.30 10.40 L 14.50 15.90 L 14.10 16.30 L 13.00 16.40 L 12.70 15.30 Z" fill="url(#paint6_linear_7137_6158)" fill-rule="nonzero" node-id="385" stroke="none" target-height="14.199999" target-width="10" target-x="9" target-y="6.1"></path><path d="M 9.00 15.40 L 9.00 17.30 L 9.80 19.20 L 10.40 19.80 L 11.90 20.30 L 14.10 20.00 L 16.40 18.40 L 17.70 16.70 L 18.40 14.60 L 18.90 11.50 L 19.00 9.70 L 18.30 7.30 L 17.80 6.80 L 16.30 6.10 L 14.40 6.20 L 12.30 7.30 L 10.10 10.00 L 9.50 12.30 L 9.00 15.40 Z M 12.70 15.30 L 13.40 10.70 L 14.50 9.90 L 15.30 10.40 L 14.50 15.90 L 14.10 16.30 L 13.00 16.40 L 12.70 15.30 Z" fill="url(#paint7_linear_7137_6158)" fill-rule="nonzero" node-id="387" stroke="none" target-height="14.199999" target-width="10" target-x="9" target-y="6.1"></path><path d="M 19.80 13.10 L 19.80 15.00 L 20.60 16.90 L 21.20 17.50 L 22.70 18.00 L 24.90 17.70 L 27.20 16.10 L 28.50 14.40 L 29.20 12.30 L 29.70 9.20 L 29.80 7.40 L 29.10 5.00 L 28.60 4.40 L 27.10 3.80 L 25.20 3.90 L 23.10 5.00 L 20.90 7.70 L 20.30 10.00 L 19.80 13.10 Z M 23.50 13.00 L 24.20 8.30 L 25.30 7.60 L 26.10 8.10 L 25.30 13.50 L 24.90 14.00 L 23.80 14.10 L 23.50 13.00 Z" fill="url(#paint8_linear_7137_6158)" fill-rule="nonzero" node-id="389" stroke="none" target-height="14.2" target-width="10" target-x="19.8" target-y="3.8"></path><path d="M 19.80 13.10 L 19.80 15.00 L 20.60 16.90 L 21.20 17.50 L 22.70 18.00 L 24.90 17.70 L 27.20 16.10 L 28.50 14.40 L 29.20 12.30 L 29.70 9.20 L 29.80 7.40 L 29.10 5.00 L 28.60 4.40 L 27.10 3.80 L 25.20 3.90 L 23.10 5.00 L 20.90 7.70 L 20.30 10.00 L 19.80 13.10 Z M 23.50 13.00 L 24.20 8.30 L 25.30 7.60 L 26.10 8.10 L 25.30 13.50 L 24.90 14.00 L 23.80 14.10 L 23.50 13.00 Z" fill="url(#paint9_radial_7137_6158)" fill-rule="nonzero" node-id="391" stroke="none" target-height="14.2" target-width="10" target-x="19.8" target-y="3.8"></path><path d="M 19.80 13.10 L 19.80 15.00 L 20.60 16.90 L 21.20 17.50 L 22.70 18.00 L 24.90 17.70 L 27.20 16.10 L 28.50 14.40 L 29.20 12.30 L 29.70 9.20 L 29.80 7.40 L 29.10 5.00 L 28.60 4.40 L 27.10 3.80 L 25.20 3.90 L 23.10 5.00 L 20.90 7.70 L 20.30 10.00 L 19.80 13.10 Z M 23.50 13.00 L 24.20 8.30 L 25.30 7.60 L 26.10 8.10 L 25.30 13.50 L 24.90 14.00 L 23.80 14.10 L 23.50 13.00 Z" fill="url(#paint10_linear_7137_6158)" fill-rule="nonzero" node-id="393" stroke="none" target-height="14.2" target-width="10" target-x="19.8" target-y="3.8"></path><path d="M 19.80 13.10 L 19.80 15.00 L 20.60 16.90 L 21.20 17.50 L 22.70 18.00 L 24.90 17.70 L 27.20 16.10 L 28.50 14.40 L 29.20 12.30 L 29.70 9.20 L 29.80 7.40 L 29.10 5.00 L 28.60 4.40 L 27.10 3.80 L 25.20 3.90 L 23.10 5.00 L 20.90 7.70 L 20.30 10.00 L 19.80 13.10 Z M 23.50 13.00 L 24.20 8.30 L 25.30 7.60 L 26.10 8.10 L 25.30 13.50 L 24.90 14.00 L 23.80 14.10 L 23.50 13.00 Z" fill="url(#paint11_linear_7137_6158)" fill-rule="nonzero" node-id="395" stroke="none" target-height="14.2" target-width="10" target-x="19.8" target-y="3.8"></path><g node-id="451"><path d="M 25.40 5.40 L 26.30 5.20 L 27.50 5.60 L 28.20 6.80 L 27.50 13.40" fill="none" filter="url(#filter1_f_7137_6158)" group-id="2" node-id="399" stroke="url(#paint12_linear_7137_6158)" stroke-linecap="round" stroke-width="1" target-height="8.2" target-width="2.8000011" target-x="25.4" target-y="5.2"></path></g><g node-id="452"><path d="M 25.10 15.00 L 23.50 15.60 L 22.40 14.70 L 22.30 12.90 L 22.90 9.20" fill="none" filter="url(#filter2_f_7137_6158)" group-id="3" node-id="404" stroke="url(#paint13_linear_7137_6158)" stroke-linecap="round" stroke-width="1" target-height="6.4000006" target-width="2.8000011" target-x="22.3" target-y="9.2"></path></g><path d="M 27.70 19.60 L 27.50 20.40 L 26.90 20.90 L 11.60 24.10 L 10.80 24.00 L 10.40 23.30 L 10.50 22.50 L 11.20 22.10 L 17.80 20.60 L 26.40 18.80 L 27.20 19.00 L 27.70 19.60 Z" fill="url(#paint14_linear_7137_6158)" fill-rule="evenodd" node-id="407" stroke="none" target-height="5.300001" target-width="17.300001" target-x="10.4" target-y="18.8"></path><path d="M 25.50 23.80 L 25.40 24.60 L 24.70 25.10 L 9.30 28.40 L 8.50 28.30 L 8.10 27.60 L 8.20 26.80 L 8.90 26.30 L 15.50 24.90 L 24.30 23.00 L 25.10 23.20 L 25.50 23.80 Z" fill="url(#paint15_linear_7137_6158)" fill-rule="evenodd" node-id="409" stroke="none" target-height="5.3999996" target-width="17.4" target-x="8.1" target-y="23"></path><g node-id="453"><path d="M 8.10 9.30 L 7.90 9.90 L 7.30 10.10 L 6.80 9.90 L 6.60 9.30 L 6.80 8.80 L 7.30 8.60 L 7.90 8.80 L 8.10 9.30 Z" fill="#ff596f" fill-rule="nonzero" filter="url(#filter3_f_7137_6158)" group-id="4" node-id="413" stroke="none" target-height="1.5" target-width="1.5000005" target-x="6.6" target-y="8.6"></path></g><g node-id="454"><path d="M 5.80 21.50 L 7.30 10.50" fill="none" filter="url(#filter4_f_7137_6158)" group-id="5" node-id="418" stroke="url(#paint16_linear_7137_6158)" stroke-linecap="round" stroke-width="0.75" target-height="11" target-width="1.5" target-x="5.8" target-y="10.5"></path></g><g node-id="455"><path d="M 3.70 13.20 L 5.60 10.90" fill="none" filter="url(#filter5_f_7137_6158)" group-id="6" node-id="423" stroke="url(#paint17_linear_7137_6158)" stroke-linecap="round" stroke-width="0.75" target-height="2.3000002" target-width="1.8999999" target-x="3.7" target-y="10.9"></path></g><g node-id="456"><path d="M 14.60 7.70 L 15.50 7.50 L 16.70 7.90 L 17.40 9.10 L 16.70 15.70" fill="none" filter="url(#filter6_f_7137_6158)" group-id="7" node-id="428" stroke="url(#paint18_linear_7137_6158)" stroke-linecap="round" stroke-width="1" target-height="8.2" target-width="2.7999992" target-x="14.6" target-y="7.5"></path></g><g node-id="457"><path d="M 14.30 17.30 L 12.70 17.90 L 11.60 17.00 L 11.50 15.20 L 12.10 11.50" fill="none" filter="url(#filter7_f_7137_6158)" group-id="8" node-id="433" stroke="url(#paint19_linear_7137_6158)" stroke-linecap="round" stroke-width="1" target-height="6.3999996" target-width="2.8000002" target-x="11.5" target-y="11.5"></path></g><g node-id="458"><g node-id="460"><path d="M 27.40 19.60 L 26.90 20.20 L 26.10 19.90 L 26.70 19.30 L 27.40 19.60 Z" fill="url(#paint20_linear_7137_6158)" fill-rule="nonzero" filter="url(#filter8_f_7137_6158)" group-id="9,11" node-id="440" stroke="none" target-height="0.9000015" target-width="1.2999992" target-x="26.1" target-y="19.3"></path></g></g><path d="M 25.20 23.80 L 24.60 24.40 L 24.10 24.40 L 24.00 23.80 L 24.40 23.50 L 25.20 23.80 Z" fill="url(#paint21_linear_7137_6158)" fill-rule="nonzero" filter="url(#filter9_f_7137_6158)" group-id="10,12" node-id="448" stroke="none" target-height="0.8999996" target-width="1.2000008" target-x="24" target-y="23.5"></path></svg>